<svg width="32" height="28" viewBox="0 0 32 28" fill="none" xmlns="http://www.w3.org/2000/svg">
<path fill-rule="evenodd" clip-rule="evenodd" d="M16 4.99996C10.0371 4.99996 4.99998 8.20619 4.99998 12.0001C4.99998 12.2764 5.2236 12.5 5.49999 12.5C5.77631 12.5 6.00003 12.2764 6.00003 12.0001C6.00003 8.80381 10.6728 6.00008 16 6.00008C16.2763 6.00008 16.5 5.77657 16.5 5.49999C16.5 5.22368 16.2763 4.99996 16 4.99996ZM16 0.000215054C7.16302 0.000215054 2.00272e-05 5.3732 2.00272e-05 12.0001C2.00272e-05 16.127 2.77933 19.7657 7.00779 21.9258C7.00779 21.9531 7.00002 21.9708 7.00002 22C7.00002 23.7929 5.66116 25.7229 5.07222 26.7365C5.07327 26.7365 5.07421 26.7365 5.07421 26.7365C5.02735 26.8458 4.99998 26.9667 4.99998 27.0938C4.99998 27.5947 5.40521 28.0001 5.90624 28.0001C6.00004 28.0001 6.16502 27.9746 6.16114 27.9875C9.28615 27.4757 12.2304 24.6046 12.914 23.7717C13.913 23.9181 14.9434 24.0001 16 24.0001C24.8359 24.0001 32.0001 18.6271 32.0001 12.0001C32.0001 5.3732 24.8359 0.000215054 16 0.000215054ZM16 22C15.083 22 14.1425 21.9306 13.2042 21.7932C13.1074 21.7784 13.0097 21.7715 12.914 21.7715C12.3203 21.7715 11.7509 22.0362 11.3682 22.5029C10.9404 23.0243 9.72264 24.1858 8.28319 25.042C8.67284 24.1477 8.97853 23.1438 8.99901 22.1105C9.00479 22.0459 9.00783 21.9815 9.00783 21.9258C9.00783 21.1749 8.58696 20.4862 7.91793 20.1447C4.21195 18.2519 2.00003 15.207 2.00003 12.0001C2.00003 6.4865 8.28022 1.99999 16 1.99999C23.7197 1.99999 30 6.4865 30 12.0001C30 17.5138 23.7197 22 16 22Z" fill="#666D89"/>
</svg>
