<svg width="22" height="32" viewBox="0 0 22 32" fill="none" xmlns="http://www.w3.org/2000/svg">
<path fill-rule="evenodd" clip-rule="evenodd" d="M19 -0.00041604L3.00001 0.000375986C1.34282 0.000375986 -2.02656e-06 1.34328 -2.02656e-06 3.00054V29.0006C-2.02656e-06 30.6577 1.34282 32.0006 3.00001 32.0006L19 31.9995C20.6572 31.9995 22 30.6569 22 28.9996V2.99968C22 1.34242 20.6572 -0.00041604 19 -0.00041604ZM20.0001 28.9996C20.0001 29.5513 19.5519 29.9995 19 29.9995L3.00001 30.0005C2.44821 30.0005 2.00002 29.5522 2.00002 29.0006V26.9966L20.0001 26.9956V28.9996ZM20.0001 25.9957L2.00002 25.9967V6.00042L20.0001 5.99963V25.9957ZM20.0001 4.99955L2.00002 5.00052V3.00054C2.00002 2.44874 2.44821 2.00064 3.00001 2.00064L19 1.99956C19.5519 1.99956 20.0001 2.44787 20.0001 2.99968V4.99955ZM13 3.49958C13 3.77606 12.7764 3.99958 12.5 3.99958H9.50003C9.22365 3.99958 9.00005 3.77606 9.00005 3.49958C9.00005 3.2232 9.22365 2.99968 9.50003 2.99968H12.5C12.7764 2.99968 13 3.2232 13 3.49958ZM11.5 28.9957C11.7764 28.9957 12 28.772 12 28.4957C12 28.2194 11.7764 27.9956 11.5 27.9956H10.5C10.2236 27.9956 10 28.2194 10 28.4957C10 28.772 10.2236 28.9957 10.5 28.9957H11.5Z" fill="#666D89"/>
</svg>
