<svg width="32" height="31" viewBox="0 0 32 31" fill="none" xmlns="http://www.w3.org/2000/svg">
<path fill-rule="evenodd" clip-rule="evenodd" d="M31.8806 11.5568C31.6043 10.7579 30.8934 10.1729 30.0379 10.046L21.7117 8.80757L18.0916 1.29408C17.7117 0.505078 16.8963 7.98702e-06 15.9998 7.98702e-06C15.1043 7.98702e-06 14.2888 0.505078 13.908 1.29408L10.2889 8.80757L1.96166 10.046C1.10619 10.1729 0.395296 10.7579 0.119896 11.5568C-0.15554 12.3574 0.0524681 13.2393 0.656944 13.8418L6.75858 19.9346L5.3436 28.386C5.2 29.2364 5.56911 30.0909 6.29177 30.5891C6.68928 30.8614 7.15606 31 7.62273 31C8.00656 31 8.3914 30.9064 8.741 30.7197L15.9998 26.8116L23.2595 30.7197C23.6092 30.9064 23.9939 31 24.3767 31C24.8444 31 25.3103 30.8614 25.7088 30.5891C26.4314 30.0909 26.7996 29.2364 26.657 28.386L25.241 19.9346L31.3436 13.8418C31.9479 13.2393 32.1551 12.3574 31.8806 11.5568ZM23.5877 18.3633C23.076 18.8741 22.8436 19.5919 22.9616 20.297L24.3767 28.7491L17.118 24.8418C16.7692 24.6542 16.3846 24.5606 15.9998 24.5606C15.616 24.5606 15.2311 24.6542 14.8826 24.8418L7.62273 28.7491L9.0389 20.297C9.15694 19.5919 8.9246 18.8741 8.41286 18.3633L2.31129 12.2716L10.6375 11.0313C11.3982 10.9182 12.0535 10.4425 12.3807 9.76375L15.9998 2.25108L19.6199 9.76375C19.9471 10.4425 20.6014 10.9182 21.3621 11.0313L29.6893 12.2716L23.5877 18.3633Z" fill="#666D89"/>
</svg>
