<svg width="32" height="28" viewBox="0 0 32 28" fill="none" xmlns="http://www.w3.org/2000/svg">
<path fill-rule="evenodd" clip-rule="evenodd" d="M15.9998 2.5047C19.7605 -0.8744 25.5624 -0.799328 29.1921 2.79232C32.9334 6.49232 32.9334 12.4905 29.1921 16.1915C29.0711 16.3114 18.1394 27.1217 18.1394 27.1217C16.9568 28.2912 15.0437 28.2912 13.8612 27.1217C13.8612 27.1217 3.87772 17.2488 2.8083 16.1915C-0.932888 12.4905 -0.932888 6.49232 2.8083 2.79232C6.43923 -0.799328 12.24 -0.8744 15.9998 2.5047ZM16.7127 25.7111L27.7654 14.7809C30.7156 11.8643 30.7156 7.11856 27.7654 4.20192C24.9226 1.38957 20.3494 1.29114 17.3562 3.98048L15.9998 5.19891L14.6443 3.98048C11.6511 1.29114 7.07891 1.38957 4.23509 4.20192C1.28493 7.11856 1.28493 11.8643 4.23509 14.7809L15.2878 25.7111C15.6795 26.1004 16.3201 26.1004 16.7127 25.7111ZM9.24986 5.02675C9.25034 5.02649 9.25081 5.02624 9.25173 5.02624C9.5281 5.02624 9.75173 5.24954 9.75173 5.52563C9.75173 5.80176 9.5281 6.02506 9.25173 6.02506H9.25076C7.45684 6.02506 6.00172 7.47853 6.00172 9.2704V9.27149C6.00172 9.54733 5.77812 9.77091 5.50172 9.77091C5.22534 9.77091 5.00175 9.54733 5.00175 9.27149C5.00175 6.92845 6.90316 5.02915 9.24784 5.0273C9.24887 5.0273 9.24937 5.02702 9.24986 5.02675Z" fill="#666D89"/>
</svg>
