<svg width="22" height="32" viewBox="0 0 22 32" fill="none" xmlns="http://www.w3.org/2000/svg">
<path fill-rule="evenodd" clip-rule="evenodd" d="M-2.02656e-06 11.0001C-2.02656e-06 4.92494 4.92484 2.00272e-05 11 2.00272e-05C17.0752 2.00272e-05 22 4.92494 22 11.0001C22 13.5355 20.52 16.1989 19.0931 18.7668C18.2688 20.2502 17.4622 21.7017 16.9688 23.0783C16.511 24.3549 16.1726 25.5139 15.8724 26.5424C14.8584 30.0155 14.2791 32 11 32C7.75168 32 7.15658 29.985 6.1181 26.4688C5.81786 25.4522 5.48055 24.3101 5.03134 23.0549C4.5393 21.68 3.73231 20.2354 2.90724 18.7584C1.48064 16.2047 -2.02656e-06 13.5541 -2.02656e-06 11.0001ZM8.63387 27.7959L13.5928 27.1758C13.7031 26.8215 13.8213 26.4308 13.9521 25.9816C14.0014 25.8131 14.0557 25.6323 14.1104 25.45C14.1458 25.3323 14.1814 25.2139 14.2159 25.0978L8.02734 25.8713C8.02879 25.8783 8.03124 25.8864 8.03357 25.8941C8.03445 25.897 8.03532 25.8998 8.0361 25.9026C8.26665 26.6836 8.45699 27.2833 8.63387 27.7959ZM7.12111 23C7.34965 23.6721 7.55471 24.3067 7.73632 24.9083L14.5352 24.0588C14.6312 23.7523 14.7405 23.4303 14.8506 23.1065C14.8626 23.071 14.8747 23.0355 14.8867 23H7.12111ZM9.00289 28.75C9.52052 29.8839 9.98733 30.0002 11 30.0002C12.1807 30.0002 12.628 29.8731 13.2412 28.2197L9.00289 28.75ZM6.3389 21H15.6719C16.167 19.9259 16.7598 18.8486 17.3447 17.795C18.6504 15.4464 20.0001 13.0176 20.0001 11.0001C20.0001 6.03713 15.9629 2.00009 11 2.00009C6.03712 2.00009 2.00002 6.03713 2.00002 11.0001C2.00002 13.0333 3.34862 15.4484 4.65332 17.7833C5.24324 18.8399 5.84085 19.921 6.3389 21ZM5.00003 11.0001C5.00003 7.69148 7.69145 5.00023 11 5.00023C11.2764 5.00023 11.5 5.22353 11.5 5.50009C11.5 5.7766 11.2764 6.0001 11 6.0001C8.24325 6.0001 6.00002 8.24325 6.00002 11.0001C6.00002 11.2764 5.77642 11.4999 5.50004 11.4999C5.22366 11.4999 5.00003 11.2764 5.00003 11.0001Z" fill="#666D89"/>
</svg>
