<svg width="32" height="32" 
viewBox="0 0 32 32" fill="none" 
xmlns="http://www.w3.org/2000/svg">
<path fill-rule="evenodd" 
clip-rule="evenodd" 
d="M29.3955 2.58015C27.75
0.937635 25.5851 
-1.50204e-05 23.4492 
-1.50204e-05C21.6494 -1.50204e-05 19.9902 0.66803 18.7803 1.877L13.9131 6.78124C13.8984 6.79489 13.8809 6.80479 13.8662 6.81931C13.8584 6.82729 13.8535 6.83776 13.8457 6.84581L13.8477 6.84766L3.51759 17.2559C3.04205 17.7285 2.69635 18.3185 2.5049 18.961L0.15633 27.4689C0.153355 27.4922 2.00272e-05 28.1612 2.00272e-05 28.4999C2.00272e-05 30.4326 1.56928 32.0001 3.50495 32.0001C3.8896 32.0001 4.63486 31.8166 4.66209 31.8125L13.1397 29.5839C13.7832 29.3926 14.3691 29.0449 14.8447 28.5685L30.1074 13.1857C32.8838 10.4064 32.5713 5.75 29.3955 2.58015ZM16.0146 23.7959C15.9326 22.8927 15.6777 22.0078 15.2959 21.1681L24.7501 11.7149C25.3281 13.5411 25.0322 15.4513 23.7646 16.7189C23.7568 16.7267 23.7472 16.7315 23.7393 16.7393L23.752 16.7521L16.0244 24.5411C16.0254 24.2932 16.0372 24.0488 16.0146 23.7959ZM14.7939 20.2559C14.4209 19.6427 13.9971 19.052 13.4717 18.5276C12.8605 17.9161 12.1592 17.4385 11.4277 17.0354L20.9601 7.50395C21.707 7.83603 22.4248 8.30877 23.0576 8.94147C23.5977 9.48068 24.0166 10.084 24.3379 10.7119L14.7939 20.2559ZM10.4864 16.5627C9.56055 16.1896 8.58979 15.9769 7.61823 15.9639L15.3213 8.20234C16.5 7.05189 18.2178 6.72069 19.9092 7.14065L10.4864 16.5627ZM4.16807 29.873C4.05862 29.8986 3.71975 29.9845 3.48931 30.0001C2.66705 29.9913 2.00003 29.3223 2.00003 28.4999C2.01171 28.333 2.07912 28.044 2.10163 27.9374L3.15433 24.1231C4.29694 24.0919 5.52736 24.5371 6.49413 25.5061C7.47661 26.4875 7.93855 27.7412 7.88772 28.8965L4.16807 29.873ZM8.87403 28.6368C8.84963 27.296 8.3037 25.8996 7.20211 24.7999C6.16023 23.7559 4.79695 23.1544 3.43656 23.1007L4.43263 19.4934C4.50494 19.2528 4.6475 19.0167 4.82327 18.8087C6.82911 17.3733 9.91412 17.7971 12.0577 19.9415C14.3242 22.208 14.6748 25.5275 12.9287 27.5098C12.8126 27.5703 12.6954 27.6289 12.5693 27.6672L8.87403 28.6368ZM28.6924 11.7725L27.0078 13.4698C27.0078 13.2443 27.0352 13.0265 27.0146 12.796C26.8389 10.8614 25.9355 8.99026 24.4717 7.52733C22.8429 5.89763 20.6816 4.96186 18.543 4.95616L20.2002 3.2861C21.0274 2.45905 22.1837 1.99999 23.4492 1.99999C25.0596 1.99999 26.7119 2.7276 27.9825 3.99516C29.1758 5.18642 29.8877 6.66598 29.9883 8.16304C30.0821 9.5608 29.6221 10.8418 28.6924 11.7725Z" fill="#666D89"/>
</svg>
